<svg width="128" height="44" viewBox="0 0 128 44" fill="none" xmlns="http://www.w3.org/2000/svg">
<path fill-rule="evenodd" clip-rule="evenodd" d="M56.5131 30.106L55.7908 29.9657C54.2454 38.1337 50.3434 42.5094 45.5668 42.5094C39.3586 42.5094 34.3305 33.1605 34.3305 21.6284C34.3305 10.0977 38.4193 0.880694 44.3382 0.880694C49.7856 0.880694 53.3162 7.31671 54.327 16.6916H55.0527V0.747014H54.327V1.49264C54.327 2.24554 53.688 3.14459 52.6566 3.14459C51.964 3.14459 51.2272 2.83983 49.9305 2.02978C47.9062 0.728659 45.6537 0.00381061 43.2768 0.00381061C34.5216 0.00381061 27.7924 9.84589 27.7924 21.9868C27.7924 34.1257 34.5216 43.9661 43.2768 43.9661C51.5632 43.9661 55.1673 37.3815 56.5131 30.106ZM112.252 43.2571C104.943 43.2571 103.038 32.0952 103.038 21.983C103.038 11.8674 105.331 0.744932 112.252 0.744932C119.173 0.744932 121.464 11.8674 121.464 21.983C121.464 32.0952 119.56 43.2571 112.252 43.2571ZM112.252 0C102.982 0 96.5031 9.04519 96.5031 22.0024C96.5031 35.3673 102.685 44 112.252 44C121.819 44 128 35.3673 128 22.0024C128 9.04519 121.522 0 112.252 0ZM81.7221 20.872C80.3793 22.7463 78.5862 23.9235 76.6731 23.9235C74.5534 23.9235 73.1984 22.7602 73.1984 21.2596C73.1984 19.6689 74.614 18.5219 76.8079 18.5219C78.6455 18.5219 80.3557 19.387 81.7221 20.872ZM70.1178 1.49541H75.1371C80.1561 1.49541 84.0882 6.64727 84.0882 13.0016C84.0882 15.0698 83.6591 17.0352 82.9328 18.7131C81.1889 17.9553 79.2609 17.5345 77.2602 17.5345C74.2517 17.5345 72.469 19.2035 72.469 21.2596C72.469 23.3101 74.2288 24.9191 76.8477 24.9191C79.1581 24.9191 81.3614 24.2487 83.2661 23.0982C84.2338 24.9642 84.8142 27.2904 84.8142 29.8864C84.8142 36.8561 80.6176 42.508 75.1371 42.508H70.1178V1.49541ZM69.383 43.2644H77.4419C85.4141 43.2644 90.9845 37.5917 90.9845 30.5946C90.9845 26.5721 89.1045 23.0632 86.1974 20.6965C88.2514 18.4502 89.5329 15.5013 89.5329 12.3304C89.5329 5.93455 84.4562 0.7484 77.1143 0.7484H61.5962V1.49541H63.944V42.5081H61.5962V43.2571H69.383V43.2644ZM24.6963 32.6296H23.9686V33.3728C23.9686 38.1649 20.5998 42.5112 13.211 42.5112H8.51859V1.49541H10.8641V0.7484H0V1.49541H2.34452V42.5112H0V43.2571H24.6963V32.6296Z" fill="#222222"/>
</svg>
